<mxfile host="app.diagrams.net" modified="2024-03-29T19:31:46.603Z" agent="Mozilla/5.0 (Windows NT 10.0; Win64; x64) AppleWebKit/537.36 (KHTML, like Gecko) Chrome/123.0.0.0 Safari/537.36" version="24.2.1" etag="ZcAZwmylXg5wTI_YKoPF" type="github">
  <diagram name="PÃ¡gina-1" id="KC1fHZ7v2wSUL1ysg5sC">
    <mxGraphModel>
      <root>
        <mxCell id="0" />
        <mxCell id="1" parent="0" />
      </root>
    </mxGraphModel>
  </diagram>
</mxfile>
